<svg width="36" height="36" viewBox="0 0 36 36" fill="none" xmlns="http://www.w3.org/2000/svg">
<g clip-path="url(#clip0)">
<path d="M7 4H32V32H7C5.34315 32 4 30.6569 4 29V7C4 5.34315 5.34315 4 7 4Z" stroke="white" stroke-width="2"/>
<mask id="path-2-inside-1" fill="white">
<path d="M33 3C31.0302 3 29.0796 3.38799 27.2597 4.14181C25.4399 4.89563 23.7863 6.00052 22.3934 7.3934C21.0005 8.78628 19.8956 10.4399 19.1418 12.2597C18.388 14.0796 18 16.0302 18 18C18 19.9698 18.388 21.9204 19.1418 23.7403C19.8956 25.5601 21.0005 27.2137 22.3934 28.6066C23.7863 29.9995 25.4399 31.1044 27.2597 31.8582C29.0796 32.612 31.0302 33 33 33L33 18L33 3Z"/>
</mask>
<path d="M33 3C31.0302 3 29.0796 3.38799 27.2597 4.14181C25.4399 4.89563 23.7863 6.00052 22.3934 7.3934C21.0005 8.78628 19.8956 10.4399 19.1418 12.2597C18.388 14.0796 18 16.0302 18 18C18 19.9698 18.388 21.9204 19.1418 23.7403C19.8956 25.5601 21.0005 27.2137 22.3934 28.6066C23.7863 29.9995 25.4399 31.1044 27.2597 31.8582C29.0796 32.612 31.0302 33 33 33L33 18L33 3Z" stroke="white" stroke-width="4" mask="url(#path-2-inside-1)"/>
</g>
<defs>
<clipPath id="clip0">
<rect width="36" height="36" fill="white"/>
</clipPath>
</defs>
</svg>